<mxfile host="app.diagrams.net" modified="2023-01-31T23:11:47.175Z" agent="5.0 (Macintosh; Intel Mac OS X 10_15_7) AppleWebKit/537.36 (KHTML, like Gecko) Chrome/109.0.0.0 Safari/537.36" etag="udxG6E7Y-FvcUtefL2oL" version="20.8.11" type="github">
  <diagram name="Page-1" id="IRaWxVjA5Qp4IZFzlLB0">
    <mxGraphModel dx="1634" dy="1131" grid="1" gridSize="10" guides="1" tooltips="1" connect="1" arrows="1" fold="1" page="1" pageScale="1" pageWidth="850" pageHeight="1100" math="0" shadow="0">
      <root>
        <mxCell id="0" />
        <mxCell id="1" parent="0" />
        <mxCell id="0Y3rsa4D7ZO0_9Gj3SC6-74" style="edgeStyle=none;rounded=0;orthogonalLoop=1;jettySize=auto;html=1;entryX=1;entryY=0.5;entryDx=0;entryDy=0;exitX=0.003;exitY=0.114;exitDx=0;exitDy=0;exitPerimeter=0;" edge="1" parent="1" source="0Y3rsa4D7ZO0_9Gj3SC6-2" target="0Y3rsa4D7ZO0_9Gj3SC6-69">
          <mxGeometry relative="1" as="geometry" />
        </mxCell>
        <mxCell id="0Y3rsa4D7ZO0_9Gj3SC6-2" value="" style="rounded=1;whiteSpace=wrap;html=1;fillColor=none;dashed=1;gradientColor=default;strokeWidth=3;strokeColor=#336600;" vertex="1" parent="1">
          <mxGeometry x="879.5" y="390" width="189" height="710" as="geometry" />
        </mxCell>
        <mxCell id="0Y3rsa4D7ZO0_9Gj3SC6-3" style="edgeStyle=none;rounded=0;orthogonalLoop=1;jettySize=auto;html=1;entryX=0;entryY=0.5;entryDx=0;entryDy=0;strokeColor=#006600;" edge="1" parent="1" source="0Y3rsa4D7ZO0_9Gj3SC6-6" target="0Y3rsa4D7ZO0_9Gj3SC6-23">
          <mxGeometry relative="1" as="geometry" />
        </mxCell>
        <mxCell id="0Y3rsa4D7ZO0_9Gj3SC6-4" style="edgeStyle=none;rounded=0;orthogonalLoop=1;jettySize=auto;html=1;entryX=0;entryY=0.5;entryDx=0;entryDy=0;strokeColor=#006600;" edge="1" parent="1" source="0Y3rsa4D7ZO0_9Gj3SC6-6" target="0Y3rsa4D7ZO0_9Gj3SC6-31">
          <mxGeometry relative="1" as="geometry" />
        </mxCell>
        <mxCell id="0Y3rsa4D7ZO0_9Gj3SC6-5" style="edgeStyle=none;rounded=0;orthogonalLoop=1;jettySize=auto;html=1;entryX=0;entryY=0.5;entryDx=0;entryDy=0;strokeColor=#006600;" edge="1" parent="1" source="0Y3rsa4D7ZO0_9Gj3SC6-6" target="0Y3rsa4D7ZO0_9Gj3SC6-39">
          <mxGeometry relative="1" as="geometry" />
        </mxCell>
        <mxCell id="0Y3rsa4D7ZO0_9Gj3SC6-6" value="Wagon" style="rounded=1;whiteSpace=wrap;html=1;fillColor=#dae8fc;strokeColor=#6c8ebf;" vertex="1" parent="1">
          <mxGeometry x="914" y="520" width="120" height="60" as="geometry" />
        </mxCell>
        <mxCell id="0Y3rsa4D7ZO0_9Gj3SC6-7" style="edgeStyle=none;rounded=0;orthogonalLoop=1;jettySize=auto;html=1;entryX=0;entryY=0.5;entryDx=0;entryDy=0;" edge="1" parent="1" source="0Y3rsa4D7ZO0_9Gj3SC6-12" target="0Y3rsa4D7ZO0_9Gj3SC6-54">
          <mxGeometry relative="1" as="geometry" />
        </mxCell>
        <mxCell id="0Y3rsa4D7ZO0_9Gj3SC6-8" style="edgeStyle=none;rounded=0;orthogonalLoop=1;jettySize=auto;html=1;entryX=0;entryY=0.5;entryDx=0;entryDy=0;" edge="1" parent="1" source="0Y3rsa4D7ZO0_9Gj3SC6-12" target="0Y3rsa4D7ZO0_9Gj3SC6-56">
          <mxGeometry relative="1" as="geometry" />
        </mxCell>
        <mxCell id="0Y3rsa4D7ZO0_9Gj3SC6-9" style="edgeStyle=none;rounded=0;orthogonalLoop=1;jettySize=auto;html=1;entryX=0;entryY=0.5;entryDx=0;entryDy=0;" edge="1" parent="1" source="0Y3rsa4D7ZO0_9Gj3SC6-12" target="0Y3rsa4D7ZO0_9Gj3SC6-58">
          <mxGeometry relative="1" as="geometry" />
        </mxCell>
        <mxCell id="0Y3rsa4D7ZO0_9Gj3SC6-10" style="edgeStyle=none;rounded=0;orthogonalLoop=1;jettySize=auto;html=1;strokeColor=#990000;dashed=1;" edge="1" parent="1" source="0Y3rsa4D7ZO0_9Gj3SC6-12" target="0Y3rsa4D7ZO0_9Gj3SC6-21">
          <mxGeometry relative="1" as="geometry" />
        </mxCell>
        <mxCell id="0Y3rsa4D7ZO0_9Gj3SC6-11" style="edgeStyle=none;rounded=0;orthogonalLoop=1;jettySize=auto;html=1;strokeColor=#990000;dashed=1;" edge="1" parent="1" source="0Y3rsa4D7ZO0_9Gj3SC6-12" target="0Y3rsa4D7ZO0_9Gj3SC6-61">
          <mxGeometry relative="1" as="geometry" />
        </mxCell>
        <mxCell id="0Y3rsa4D7ZO0_9Gj3SC6-12" value="Engineering" style="shape=umlActor;verticalLabelPosition=bottom;verticalAlign=top;html=1;outlineConnect=0;" vertex="1" parent="1">
          <mxGeometry x="394" y="745" width="30" height="60" as="geometry" />
        </mxCell>
        <mxCell id="0Y3rsa4D7ZO0_9Gj3SC6-13" style="edgeStyle=none;rounded=0;orthogonalLoop=1;jettySize=auto;html=1;entryX=0.5;entryY=1;entryDx=0;entryDy=0;" edge="1" parent="1" source="0Y3rsa4D7ZO0_9Gj3SC6-18" target="0Y3rsa4D7ZO0_9Gj3SC6-6">
          <mxGeometry relative="1" as="geometry" />
        </mxCell>
        <mxCell id="0Y3rsa4D7ZO0_9Gj3SC6-14" style="edgeStyle=none;rounded=0;orthogonalLoop=1;jettySize=auto;html=1;entryX=0;entryY=0.5;entryDx=0;entryDy=0;strokeColor=#990000;" edge="1" parent="1" source="0Y3rsa4D7ZO0_9Gj3SC6-18" target="0Y3rsa4D7ZO0_9Gj3SC6-23">
          <mxGeometry relative="1" as="geometry" />
        </mxCell>
        <mxCell id="0Y3rsa4D7ZO0_9Gj3SC6-15" style="edgeStyle=none;rounded=0;orthogonalLoop=1;jettySize=auto;html=1;entryX=0;entryY=0.5;entryDx=0;entryDy=0;strokeColor=#990000;" edge="1" parent="1" source="0Y3rsa4D7ZO0_9Gj3SC6-18" target="0Y3rsa4D7ZO0_9Gj3SC6-31">
          <mxGeometry relative="1" as="geometry" />
        </mxCell>
        <mxCell id="0Y3rsa4D7ZO0_9Gj3SC6-16" style="edgeStyle=none;rounded=0;orthogonalLoop=1;jettySize=auto;html=1;entryX=0;entryY=0.5;entryDx=0;entryDy=0;strokeColor=#990000;" edge="1" parent="1" source="0Y3rsa4D7ZO0_9Gj3SC6-18" target="0Y3rsa4D7ZO0_9Gj3SC6-39">
          <mxGeometry relative="1" as="geometry" />
        </mxCell>
        <mxCell id="0Y3rsa4D7ZO0_9Gj3SC6-17" style="edgeStyle=none;rounded=0;orthogonalLoop=1;jettySize=auto;html=1;entryX=0;entryY=0;entryDx=60;entryDy=80;entryPerimeter=0;dashed=1;strokeColor=#990000;" edge="1" parent="1" source="0Y3rsa4D7ZO0_9Gj3SC6-18" target="0Y3rsa4D7ZO0_9Gj3SC6-64">
          <mxGeometry relative="1" as="geometry" />
        </mxCell>
        <mxCell id="0Y3rsa4D7ZO0_9Gj3SC6-18" value="Zordon" style="rounded=1;whiteSpace=wrap;html=1;fillColor=#dae8fc;strokeColor=#6c8ebf;" vertex="1" parent="1">
          <mxGeometry x="914" y="977" width="120" height="60" as="geometry" />
        </mxCell>
        <mxCell id="0Y3rsa4D7ZO0_9Gj3SC6-19" value="" style="endArrow=none;dashed=1;html=1;dashPattern=1 3;strokeWidth=2;rounded=0;" edge="1" parent="1">
          <mxGeometry width="50" height="50" relative="1" as="geometry">
            <mxPoint x="1180" y="1190" as="sourcePoint" />
            <mxPoint x="1180" y="330" as="targetPoint" />
          </mxGeometry>
        </mxCell>
        <mxCell id="0Y3rsa4D7ZO0_9Gj3SC6-20" style="edgeStyle=none;rounded=0;orthogonalLoop=1;jettySize=auto;html=1;entryX=0;entryY=0.5;entryDx=0;entryDy=0;strokeColor=#990000;dashed=1;" edge="1" parent="1" source="0Y3rsa4D7ZO0_9Gj3SC6-21" target="0Y3rsa4D7ZO0_9Gj3SC6-54">
          <mxGeometry relative="1" as="geometry" />
        </mxCell>
        <mxCell id="0Y3rsa4D7ZO0_9Gj3SC6-21" value="Jenkins cross account role" style="sketch=0;outlineConnect=0;fontColor=#232F3E;gradientColor=none;fillColor=#08bf70;strokeColor=none;dashed=0;verticalLabelPosition=bottom;verticalAlign=top;align=center;html=1;fontSize=12;fontStyle=0;aspect=fixed;pointerEvents=1;shape=mxgraph.aws4.role;" vertex="1" parent="1">
          <mxGeometry x="370" y="573" width="78" height="44" as="geometry" />
        </mxCell>
        <mxCell id="0Y3rsa4D7ZO0_9Gj3SC6-22" value="..." style="text;html=1;align=center;verticalAlign=middle;resizable=0;points=[];autosize=1;strokeColor=none;fillColor=none;" vertex="1" parent="1">
          <mxGeometry x="529" y="680" width="30" height="30" as="geometry" />
        </mxCell>
        <mxCell id="0Y3rsa4D7ZO0_9Gj3SC6-23" value="" style="group;movable=1;resizable=1;rotatable=1;deletable=1;editable=1;connectable=1;" vertex="1" connectable="0" parent="1">
          <mxGeometry x="1284" y="240" width="470" height="270" as="geometry" />
        </mxCell>
        <mxCell id="0Y3rsa4D7ZO0_9Gj3SC6-24" value="" style="ellipse;shape=cloud;whiteSpace=wrap;html=1;movable=1;resizable=1;rotatable=1;deletable=1;editable=1;connectable=1;" vertex="1" parent="0Y3rsa4D7ZO0_9Gj3SC6-23">
          <mxGeometry width="470" height="270" as="geometry" />
        </mxCell>
        <mxCell id="0Y3rsa4D7ZO0_9Gj3SC6-25" value="" style="sketch=0;points=[[0,0,0],[0.25,0,0],[0.5,0,0],[0.75,0,0],[1,0,0],[0,1,0],[0.25,1,0],[0.5,1,0],[0.75,1,0],[1,1,0],[0,0.25,0],[0,0.5,0],[0,0.75,0],[1,0.25,0],[1,0.5,0],[1,0.75,0]];outlineConnect=0;fontColor=#232F3E;gradientColor=#F78E04;gradientDirection=north;fillColor=#D05C17;strokeColor=#ffffff;dashed=0;verticalLabelPosition=bottom;verticalAlign=top;align=center;html=1;fontSize=12;fontStyle=0;aspect=fixed;shape=mxgraph.aws4.resourceIcon;resIcon=mxgraph.aws4.eks_cloud;movable=1;resizable=1;rotatable=1;deletable=1;editable=1;connectable=1;" vertex="1" parent="0Y3rsa4D7ZO0_9Gj3SC6-23">
          <mxGeometry x="150" y="145" width="70" height="70" as="geometry" />
        </mxCell>
        <mxCell id="0Y3rsa4D7ZO0_9Gj3SC6-26" value="" style="outlineConnect=0;dashed=0;verticalLabelPosition=bottom;verticalAlign=top;align=center;html=1;shape=mxgraph.aws3.bucket_with_objects;fillColor=#E05243;gradientColor=none;movable=1;resizable=1;rotatable=1;deletable=1;editable=1;connectable=1;" vertex="1" parent="0Y3rsa4D7ZO0_9Gj3SC6-23">
          <mxGeometry x="341" y="143" width="50" height="51.5" as="geometry" />
        </mxCell>
        <mxCell id="0Y3rsa4D7ZO0_9Gj3SC6-27" value="" style="outlineConnect=0;dashed=0;verticalLabelPosition=bottom;verticalAlign=top;align=center;html=1;shape=mxgraph.aws3.rds;fillColor=#2E73B8;gradientColor=none;movable=1;resizable=1;rotatable=1;deletable=1;editable=1;connectable=1;" vertex="1" parent="0Y3rsa4D7ZO0_9Gj3SC6-23">
          <mxGeometry x="261" y="73" width="50" height="61" as="geometry" />
        </mxCell>
        <mxCell id="0Y3rsa4D7ZO0_9Gj3SC6-28" value="" style="outlineConnect=0;dashed=0;verticalLabelPosition=bottom;verticalAlign=top;align=center;html=1;shape=mxgraph.aws3.ec2;fillColor=#F58534;gradientColor=none;movable=1;resizable=1;rotatable=1;deletable=1;editable=1;connectable=1;" vertex="1" parent="0Y3rsa4D7ZO0_9Gj3SC6-23">
          <mxGeometry x="151" y="50" width="60" height="63" as="geometry" />
        </mxCell>
        <mxCell id="0Y3rsa4D7ZO0_9Gj3SC6-29" value="AWS Cloud" style="sketch=0;outlineConnect=0;fontColor=#232F3E;gradientColor=none;strokeColor=#232F3E;fillColor=#ffffff;dashed=0;verticalLabelPosition=bottom;verticalAlign=top;align=center;html=1;fontSize=12;fontStyle=0;aspect=fixed;shape=mxgraph.aws4.resourceIcon;resIcon=mxgraph.aws4.aws_cloud;movable=1;resizable=1;rotatable=1;deletable=1;editable=1;connectable=1;" vertex="1" parent="0Y3rsa4D7ZO0_9Gj3SC6-23">
          <mxGeometry x="276" y="208" width="60" height="60" as="geometry" />
        </mxCell>
        <mxCell id="0Y3rsa4D7ZO0_9Gj3SC6-30" value="" style="shape=image;html=1;verticalAlign=top;verticalLabelPosition=bottom;labelBackgroundColor=#ffffff;imageAspect=0;aspect=fixed;image=https://cdn1.iconfinder.com/data/icons/iconoir-vol-3/24/question-mark-128.png;movable=1;resizable=1;rotatable=1;deletable=1;editable=1;connectable=1;" vertex="1" parent="0Y3rsa4D7ZO0_9Gj3SC6-23">
          <mxGeometry x="238" y="150" width="58" height="58" as="geometry" />
        </mxCell>
        <mxCell id="0Y3rsa4D7ZO0_9Gj3SC6-31" value="" style="group;movable=1;resizable=1;rotatable=1;deletable=1;editable=1;connectable=1;" vertex="1" connectable="0" parent="1">
          <mxGeometry x="1304" y="640" width="470" height="270" as="geometry" />
        </mxCell>
        <mxCell id="0Y3rsa4D7ZO0_9Gj3SC6-32" value="" style="ellipse;shape=cloud;whiteSpace=wrap;html=1;movable=1;resizable=1;rotatable=1;deletable=1;editable=1;connectable=1;" vertex="1" parent="0Y3rsa4D7ZO0_9Gj3SC6-31">
          <mxGeometry width="470" height="270" as="geometry" />
        </mxCell>
        <mxCell id="0Y3rsa4D7ZO0_9Gj3SC6-33" value="" style="sketch=0;points=[[0,0,0],[0.25,0,0],[0.5,0,0],[0.75,0,0],[1,0,0],[0,1,0],[0.25,1,0],[0.5,1,0],[0.75,1,0],[1,1,0],[0,0.25,0],[0,0.5,0],[0,0.75,0],[1,0.25,0],[1,0.5,0],[1,0.75,0]];outlineConnect=0;fontColor=#232F3E;gradientColor=#F78E04;gradientDirection=north;fillColor=#D05C17;strokeColor=#ffffff;dashed=0;verticalLabelPosition=bottom;verticalAlign=top;align=center;html=1;fontSize=12;fontStyle=0;aspect=fixed;shape=mxgraph.aws4.resourceIcon;resIcon=mxgraph.aws4.eks_cloud;movable=1;resizable=1;rotatable=1;deletable=1;editable=1;connectable=1;" vertex="1" parent="0Y3rsa4D7ZO0_9Gj3SC6-31">
          <mxGeometry x="150" y="145" width="70" height="70" as="geometry" />
        </mxCell>
        <mxCell id="0Y3rsa4D7ZO0_9Gj3SC6-34" value="" style="outlineConnect=0;dashed=0;verticalLabelPosition=bottom;verticalAlign=top;align=center;html=1;shape=mxgraph.aws3.bucket_with_objects;fillColor=#E05243;gradientColor=none;movable=1;resizable=1;rotatable=1;deletable=1;editable=1;connectable=1;" vertex="1" parent="0Y3rsa4D7ZO0_9Gj3SC6-31">
          <mxGeometry x="341" y="143" width="50" height="51.5" as="geometry" />
        </mxCell>
        <mxCell id="0Y3rsa4D7ZO0_9Gj3SC6-35" value="" style="outlineConnect=0;dashed=0;verticalLabelPosition=bottom;verticalAlign=top;align=center;html=1;shape=mxgraph.aws3.rds;fillColor=#2E73B8;gradientColor=none;movable=1;resizable=1;rotatable=1;deletable=1;editable=1;connectable=1;" vertex="1" parent="0Y3rsa4D7ZO0_9Gj3SC6-31">
          <mxGeometry x="261" y="73" width="50" height="61" as="geometry" />
        </mxCell>
        <mxCell id="0Y3rsa4D7ZO0_9Gj3SC6-36" value="" style="outlineConnect=0;dashed=0;verticalLabelPosition=bottom;verticalAlign=top;align=center;html=1;shape=mxgraph.aws3.ec2;fillColor=#F58534;gradientColor=none;movable=1;resizable=1;rotatable=1;deletable=1;editable=1;connectable=1;" vertex="1" parent="0Y3rsa4D7ZO0_9Gj3SC6-31">
          <mxGeometry x="151" y="50" width="60" height="63" as="geometry" />
        </mxCell>
        <mxCell id="0Y3rsa4D7ZO0_9Gj3SC6-37" value="AWS Cloud" style="sketch=0;outlineConnect=0;fontColor=#232F3E;gradientColor=none;strokeColor=#232F3E;fillColor=#ffffff;dashed=0;verticalLabelPosition=bottom;verticalAlign=top;align=center;html=1;fontSize=12;fontStyle=0;aspect=fixed;shape=mxgraph.aws4.resourceIcon;resIcon=mxgraph.aws4.aws_cloud;movable=1;resizable=1;rotatable=1;deletable=1;editable=1;connectable=1;" vertex="1" parent="0Y3rsa4D7ZO0_9Gj3SC6-31">
          <mxGeometry x="276" y="208" width="60" height="60" as="geometry" />
        </mxCell>
        <mxCell id="0Y3rsa4D7ZO0_9Gj3SC6-38" value="" style="shape=image;html=1;verticalAlign=top;verticalLabelPosition=bottom;labelBackgroundColor=#ffffff;imageAspect=0;aspect=fixed;image=https://cdn1.iconfinder.com/data/icons/iconoir-vol-3/24/question-mark-128.png;movable=1;resizable=1;rotatable=1;deletable=1;editable=1;connectable=1;" vertex="1" parent="0Y3rsa4D7ZO0_9Gj3SC6-31">
          <mxGeometry x="238" y="150" width="58" height="58" as="geometry" />
        </mxCell>
        <mxCell id="0Y3rsa4D7ZO0_9Gj3SC6-39" value="" style="group;movable=1;resizable=1;rotatable=1;deletable=1;editable=1;connectable=1;" vertex="1" connectable="0" parent="1">
          <mxGeometry x="1320" y="1030" width="470" height="270" as="geometry" />
        </mxCell>
        <mxCell id="0Y3rsa4D7ZO0_9Gj3SC6-40" value="" style="ellipse;shape=cloud;whiteSpace=wrap;html=1;movable=1;resizable=1;rotatable=1;deletable=1;editable=1;connectable=1;" vertex="1" parent="0Y3rsa4D7ZO0_9Gj3SC6-39">
          <mxGeometry width="470" height="270" as="geometry" />
        </mxCell>
        <mxCell id="0Y3rsa4D7ZO0_9Gj3SC6-41" value="" style="sketch=0;points=[[0,0,0],[0.25,0,0],[0.5,0,0],[0.75,0,0],[1,0,0],[0,1,0],[0.25,1,0],[0.5,1,0],[0.75,1,0],[1,1,0],[0,0.25,0],[0,0.5,0],[0,0.75,0],[1,0.25,0],[1,0.5,0],[1,0.75,0]];outlineConnect=0;fontColor=#232F3E;gradientColor=#F78E04;gradientDirection=north;fillColor=#D05C17;strokeColor=#ffffff;dashed=0;verticalLabelPosition=bottom;verticalAlign=top;align=center;html=1;fontSize=12;fontStyle=0;aspect=fixed;shape=mxgraph.aws4.resourceIcon;resIcon=mxgraph.aws4.eks_cloud;movable=1;resizable=1;rotatable=1;deletable=1;editable=1;connectable=1;" vertex="1" parent="0Y3rsa4D7ZO0_9Gj3SC6-39">
          <mxGeometry x="150" y="145" width="70" height="70" as="geometry" />
        </mxCell>
        <mxCell id="0Y3rsa4D7ZO0_9Gj3SC6-42" value="" style="outlineConnect=0;dashed=0;verticalLabelPosition=bottom;verticalAlign=top;align=center;html=1;shape=mxgraph.aws3.bucket_with_objects;fillColor=#E05243;gradientColor=none;movable=1;resizable=1;rotatable=1;deletable=1;editable=1;connectable=1;" vertex="1" parent="0Y3rsa4D7ZO0_9Gj3SC6-39">
          <mxGeometry x="341" y="143" width="50" height="51.5" as="geometry" />
        </mxCell>
        <mxCell id="0Y3rsa4D7ZO0_9Gj3SC6-43" value="" style="outlineConnect=0;dashed=0;verticalLabelPosition=bottom;verticalAlign=top;align=center;html=1;shape=mxgraph.aws3.rds;fillColor=#2E73B8;gradientColor=none;movable=1;resizable=1;rotatable=1;deletable=1;editable=1;connectable=1;" vertex="1" parent="0Y3rsa4D7ZO0_9Gj3SC6-39">
          <mxGeometry x="261" y="73" width="50" height="61" as="geometry" />
        </mxCell>
        <mxCell id="0Y3rsa4D7ZO0_9Gj3SC6-44" value="" style="outlineConnect=0;dashed=0;verticalLabelPosition=bottom;verticalAlign=top;align=center;html=1;shape=mxgraph.aws3.ec2;fillColor=#F58534;gradientColor=none;movable=1;resizable=1;rotatable=1;deletable=1;editable=1;connectable=1;" vertex="1" parent="0Y3rsa4D7ZO0_9Gj3SC6-39">
          <mxGeometry x="151" y="50" width="60" height="63" as="geometry" />
        </mxCell>
        <mxCell id="0Y3rsa4D7ZO0_9Gj3SC6-45" value="AWS Cloud" style="sketch=0;outlineConnect=0;fontColor=#232F3E;gradientColor=none;strokeColor=#232F3E;fillColor=#ffffff;dashed=0;verticalLabelPosition=bottom;verticalAlign=top;align=center;html=1;fontSize=12;fontStyle=0;aspect=fixed;shape=mxgraph.aws4.resourceIcon;resIcon=mxgraph.aws4.aws_cloud;movable=1;resizable=1;rotatable=1;deletable=1;editable=1;connectable=1;" vertex="1" parent="0Y3rsa4D7ZO0_9Gj3SC6-39">
          <mxGeometry x="276" y="208" width="60" height="60" as="geometry" />
        </mxCell>
        <mxCell id="0Y3rsa4D7ZO0_9Gj3SC6-46" value="" style="shape=image;html=1;verticalAlign=top;verticalLabelPosition=bottom;labelBackgroundColor=#ffffff;imageAspect=0;aspect=fixed;image=https://cdn1.iconfinder.com/data/icons/iconoir-vol-3/24/question-mark-128.png;movable=1;resizable=1;rotatable=1;deletable=1;editable=1;connectable=1;" vertex="1" parent="0Y3rsa4D7ZO0_9Gj3SC6-39">
          <mxGeometry x="238" y="150" width="58" height="58" as="geometry" />
        </mxCell>
        <mxCell id="0Y3rsa4D7ZO0_9Gj3SC6-47" style="edgeStyle=none;rounded=0;orthogonalLoop=1;jettySize=auto;html=1;entryX=0.75;entryY=0;entryDx=0;entryDy=0;dashed=1;strokeColor=#990000;" edge="1" parent="1" source="0Y3rsa4D7ZO0_9Gj3SC6-48" target="0Y3rsa4D7ZO0_9Gj3SC6-23">
          <mxGeometry relative="1" as="geometry" />
        </mxCell>
        <mxCell id="0Y3rsa4D7ZO0_9Gj3SC6-48" value="Production" style="shape=callout;whiteSpace=wrap;html=1;perimeter=calloutPerimeter;" vertex="1" parent="1">
          <mxGeometry x="1670" y="150" width="120" height="80" as="geometry" />
        </mxCell>
        <mxCell id="0Y3rsa4D7ZO0_9Gj3SC6-49" style="edgeStyle=none;rounded=0;orthogonalLoop=1;jettySize=auto;html=1;entryX=0.809;entryY=0;entryDx=0;entryDy=0;entryPerimeter=0;dashed=1;strokeColor=#990000;" edge="1" parent="1" source="0Y3rsa4D7ZO0_9Gj3SC6-50" target="0Y3rsa4D7ZO0_9Gj3SC6-31">
          <mxGeometry relative="1" as="geometry" />
        </mxCell>
        <mxCell id="0Y3rsa4D7ZO0_9Gj3SC6-50" value="Sandbox" style="shape=callout;whiteSpace=wrap;html=1;perimeter=calloutPerimeter;" vertex="1" parent="1">
          <mxGeometry x="1754" y="540" width="120" height="80" as="geometry" />
        </mxCell>
        <mxCell id="0Y3rsa4D7ZO0_9Gj3SC6-51" style="edgeStyle=none;rounded=0;orthogonalLoop=1;jettySize=auto;html=1;entryX=1;entryY=0;entryDx=0;entryDy=0;dashed=1;strokeColor=#990000;" edge="1" parent="1" source="0Y3rsa4D7ZO0_9Gj3SC6-52" target="0Y3rsa4D7ZO0_9Gj3SC6-39">
          <mxGeometry relative="1" as="geometry" />
        </mxCell>
        <mxCell id="0Y3rsa4D7ZO0_9Gj3SC6-52" value="Staging/Dev/QAD" style="shape=callout;whiteSpace=wrap;html=1;perimeter=calloutPerimeter;" vertex="1" parent="1">
          <mxGeometry x="1774" y="910" width="120" height="80" as="geometry" />
        </mxCell>
        <mxCell id="0Y3rsa4D7ZO0_9Gj3SC6-53" style="edgeStyle=none;rounded=0;orthogonalLoop=1;jettySize=auto;html=1;entryX=0;entryY=0.5;entryDx=0;entryDy=0;" edge="1" parent="1" source="0Y3rsa4D7ZO0_9Gj3SC6-54" target="0Y3rsa4D7ZO0_9Gj3SC6-6">
          <mxGeometry relative="1" as="geometry" />
        </mxCell>
        <mxCell id="0Y3rsa4D7ZO0_9Gj3SC6-54" value="Jenkins pipeline" style="rounded=1;whiteSpace=wrap;html=1;fillColor=#dae8fc;strokeColor=#6c8ebf;" vertex="1" parent="1">
          <mxGeometry x="624" y="565" width="120" height="60" as="geometry" />
        </mxCell>
        <mxCell id="0Y3rsa4D7ZO0_9Gj3SC6-55" style="edgeStyle=none;rounded=0;orthogonalLoop=1;jettySize=auto;html=1;entryX=0;entryY=0.5;entryDx=0;entryDy=0;" edge="1" parent="1" source="0Y3rsa4D7ZO0_9Gj3SC6-56" target="0Y3rsa4D7ZO0_9Gj3SC6-6">
          <mxGeometry relative="1" as="geometry" />
        </mxCell>
        <mxCell id="0Y3rsa4D7ZO0_9Gj3SC6-56" value="Mac OS / Windows / Linux" style="rounded=1;whiteSpace=wrap;html=1;fillColor=#dae8fc;strokeColor=#6c8ebf;" vertex="1" parent="1">
          <mxGeometry x="624" y="745" width="120" height="60" as="geometry" />
        </mxCell>
        <mxCell id="0Y3rsa4D7ZO0_9Gj3SC6-57" style="edgeStyle=none;rounded=0;orthogonalLoop=1;jettySize=auto;html=1;entryX=0;entryY=0.5;entryDx=0;entryDy=0;" edge="1" parent="1" source="0Y3rsa4D7ZO0_9Gj3SC6-58" target="0Y3rsa4D7ZO0_9Gj3SC6-18">
          <mxGeometry relative="1" as="geometry" />
        </mxCell>
        <mxCell id="0Y3rsa4D7ZO0_9Gj3SC6-58" value="Gitlab" style="rounded=1;whiteSpace=wrap;html=1;fillColor=#dae8fc;strokeColor=#6c8ebf;" vertex="1" parent="1">
          <mxGeometry x="624" y="925" width="120" height="60" as="geometry" />
        </mxCell>
        <mxCell id="0Y3rsa4D7ZO0_9Gj3SC6-59" style="edgeStyle=none;rounded=0;orthogonalLoop=1;jettySize=auto;html=1;entryX=0;entryY=0.5;entryDx=0;entryDy=0;strokeColor=#990000;dashed=1;" edge="1" parent="1" source="0Y3rsa4D7ZO0_9Gj3SC6-61" target="0Y3rsa4D7ZO0_9Gj3SC6-56">
          <mxGeometry relative="1" as="geometry" />
        </mxCell>
        <mxCell id="0Y3rsa4D7ZO0_9Gj3SC6-60" style="edgeStyle=none;rounded=0;orthogonalLoop=1;jettySize=auto;html=1;entryX=0;entryY=0.5;entryDx=0;entryDy=0;strokeColor=#990000;dashed=1;" edge="1" parent="1" source="0Y3rsa4D7ZO0_9Gj3SC6-61" target="0Y3rsa4D7ZO0_9Gj3SC6-58">
          <mxGeometry relative="1" as="geometry" />
        </mxCell>
        <mxCell id="0Y3rsa4D7ZO0_9Gj3SC6-61" value="Engineering role" style="sketch=0;outlineConnect=0;fontColor=#232F3E;gradientColor=none;fillColor=#2608bf;strokeColor=none;dashed=0;verticalLabelPosition=bottom;verticalAlign=top;align=center;html=1;fontSize=12;fontStyle=0;aspect=fixed;pointerEvents=1;shape=mxgraph.aws4.role;" vertex="1" parent="1">
          <mxGeometry x="370" y="933" width="78" height="44" as="geometry" />
        </mxCell>
        <mxCell id="0Y3rsa4D7ZO0_9Gj3SC6-62" style="edgeStyle=none;rounded=0;orthogonalLoop=1;jettySize=auto;html=1;entryX=0.5;entryY=0;entryDx=0;entryDy=0;dashed=1;strokeColor=#990000;" edge="1" parent="1" source="0Y3rsa4D7ZO0_9Gj3SC6-63" target="0Y3rsa4D7ZO0_9Gj3SC6-6">
          <mxGeometry relative="1" as="geometry" />
        </mxCell>
        <mxCell id="0Y3rsa4D7ZO0_9Gj3SC6-63" value="ECS Deployment , 85% services" style="shape=callout;whiteSpace=wrap;html=1;perimeter=calloutPerimeter;" vertex="1" parent="1">
          <mxGeometry x="1110" y="230" width="120" height="80" as="geometry" />
        </mxCell>
        <mxCell id="0Y3rsa4D7ZO0_9Gj3SC6-64" value="EKS deployment, 15% services" style="shape=callout;whiteSpace=wrap;html=1;perimeter=calloutPerimeter;" vertex="1" parent="1">
          <mxGeometry x="670" y="1110" width="120" height="80" as="geometry" />
        </mxCell>
        <mxCell id="0Y3rsa4D7ZO0_9Gj3SC6-67" style="edgeStyle=none;rounded=0;orthogonalLoop=1;jettySize=auto;html=1;dashed=1;strokeColor=#990000;" edge="1" parent="1" source="0Y3rsa4D7ZO0_9Gj3SC6-68" target="0Y3rsa4D7ZO0_9Gj3SC6-2">
          <mxGeometry relative="1" as="geometry" />
        </mxCell>
        <mxCell id="0Y3rsa4D7ZO0_9Gj3SC6-68" value="Solution B: Deployment freeze by Tools" style="text;html=1;align=center;verticalAlign=middle;resizable=0;points=[];autosize=1;strokeColor=none;fillColor=none;fontStyle=5" vertex="1" parent="1">
          <mxGeometry x="849" y="290" width="250" height="30" as="geometry" />
        </mxCell>
        <mxCell id="0Y3rsa4D7ZO0_9Gj3SC6-69" value="Deployment Freeze WebApp" style="rounded=0;whiteSpace=wrap;html=1;fillColor=#d5e8d4;strokeColor=#82b366;strokeWidth=4;" vertex="1" parent="1">
          <mxGeometry x="609" y="360" width="150" height="60" as="geometry" />
        </mxCell>
        <mxCell id="0Y3rsa4D7ZO0_9Gj3SC6-82" style="edgeStyle=none;rounded=0;orthogonalLoop=1;jettySize=auto;html=1;entryX=0;entryY=0.5;entryDx=0;entryDy=0;" edge="1" parent="1" source="0Y3rsa4D7ZO0_9Gj3SC6-71" target="0Y3rsa4D7ZO0_9Gj3SC6-69">
          <mxGeometry relative="1" as="geometry" />
        </mxCell>
        <mxCell id="0Y3rsa4D7ZO0_9Gj3SC6-71" value="Release Amin" style="shape=umlActor;verticalLabelPosition=bottom;verticalAlign=top;html=1;outlineConnect=0;" vertex="1" parent="1">
          <mxGeometry x="395" y="360" width="30" height="60" as="geometry" />
        </mxCell>
        <mxCell id="0Y3rsa4D7ZO0_9Gj3SC6-81" value="2" style="ellipse;whiteSpace=wrap;html=1;aspect=fixed;strokeWidth=3;fontFamily=Tahoma;spacingBottom=4;spacingRight=2;strokeColor=#07e921;" vertex="1" parent="1">
          <mxGeometry x="820" y="420" width="20" height="20" as="geometry" />
        </mxCell>
        <mxCell id="0Y3rsa4D7ZO0_9Gj3SC6-83" value="1" style="ellipse;whiteSpace=wrap;html=1;aspect=fixed;strokeWidth=3;fontFamily=Tahoma;spacingBottom=4;spacingRight=2;strokeColor=#07e921;" vertex="1" parent="1">
          <mxGeometry x="520" y="365" width="20" height="20" as="geometry" />
        </mxCell>
      </root>
    </mxGraphModel>
  </diagram>
</mxfile>
